<svg xmlns="http://www.w3.org/2000/svg" viewBox="0 0 740 420" font-family="'Zen Maru Gothic','Hiragino Kaku Gothic ProN',sans-serif">
  <rect width="740" height="420" fill="#f2f8f6"/>
  <path d="M274.5 243.8 L274.0 243.2 L272.1 241.9 L270.6 242.3 L269.0 242.3 L268.2 241.2 L266.7 240.3 L264.7 240.5 L263.6 240.1 L261.7 239.8 L260.6 241.0 L260.0 240.5 L257.5 241.2 L256.5 241.3 L255.4 241.2 L254.5 241.2 L252.7 241.7 L249.2 246.1 L247.3 246.6 L243.9 245.2 L240.7 243.0 L240.1 242.7 L238.3 242.9 L237.5 243.1 L236.4 244.4 L236.6 246.8 L233.8 246.1 L229.3 245.9 L229.4 245.0 L228.7 243.7 L228.5 241.2 L227.9 240.9 L226.3 241.2 L225.7 241.2 L225.2 240.7 L218.7 237.9 L214.7 236.7 L214.7 234.9 L215.3 231.4 L214.4 231.3 L214.4 230.5 L214.5 228.6 L215.2 227.5 L214.6 225.3 L214.6 222.7 L214.1 221.8 L213.8 220.2 L215.3 215.8 L215.8 214.9 L215.6 213.2 L215.5 210.3 L217.1 208.6 L217.8 206.3 L217.6 204.1 L218.8 203.6 L221.5 199.7 L221.1 198.6 L221.4 197.7 L221.4 195.7 L219.7 194.3 L219.5 193.2 L221.0 190.3 L221.2 187.4 L222.8 186.3 L224.4 186.3 L224.2 184.9 L224.7 182.9 L225.0 183.0 L226.3 182.9 L227.6 182.1 L229.2 177.8 L228.8 176.0 L230.2 174.8 L230.6 174.9 L232.4 172.9 L234.4 172.3 L234.7 172.4 L236.1 173.4 L238.3 172.9 L238.6 172.7 L240.9 171.5 L242.0 171.9 L242.2 171.6 L245.3 170.5 L246.2 168.9 L247.5 165.9 L245.3 164.8 L243.7 163.1 L243.9 161.0 L243.9 159.0 L242.5 158.6 L244.1 157.8 L246.3 156.5 L247.0 156.5 L247.9 156.5 L249.7 154.4 L250.0 154.5 L253.4 153.6 L254.7 153.8 L256.0 153.8 L257.2 153.4 L259.4 155.2 L261.4 153.1 L262.5 151.1 L263.4 151.2 L264.7 152.9 L266.0 153.6 L267.4 152.4 L269.0 149.4 L269.6 149.2 L271.0 149.6 L273.9 148.3 L275.1 147.6 L277.3 147.2 L278.2 146.7 L279.7 146.8 L280.3 146.2 L280.8 146.2 L281.9 146.1 L284.2 144.7 L287.1 143.8 L288.8 144.4 L291.1 143.8 L291.7 142.3 L293.0 141.0 L293.6 139.4 L293.5 137.8 L294.6 136.1 L295.3 136.5 L296.8 136.4 L298.1 137.5 L299.7 137.8 L301.8 139.4 L303.2 140.6 L304.0 140.6 L304.7 141.4 L306.2 141.2 L308.0 141.2 L308.6 141.6 L310.1 141.9 L310.7 141.2 L311.0 139.4 L311.4 138.4 L313.0 136.7 L313.9 136.4 L315.2 135.7 L316.7 136.7 L317.9 136.1 L319.1 133.7 L318.9 132.9 L319.4 131.4 L319.8 128.2 L320.4 127.0 L320.0 126.6 L318.8 123.0 L318.0 119.9 L319.6 119.6 L321.2 120.2 L322.1 119.9 L324.1 120.6 L326.2 121.4 L327.5 120.8 L330.4 119.4 L330.8 119.3 L331.2 119.3 L332.2 118.0 L332.8 117.2 L333.8 117.3 L337.5 116.7 L340.4 116.1 L344.3 115.1 L344.6 113.9 L343.4 110.9 L341.9 110.1 L341.3 109.5 L342.8 105.9 L341.6 103.7 L342.9 99.6 L344.5 98.6 L345.2 96.4 L347.0 96.0 L349.3 96.4 L350.3 96.0 L353.3 97.0 L354.8 98.4 L356.7 97.2 L356.9 93.4 L355.6 90.7 L356.2 88.4 L353.9 85.3 L353.4 81.1 L353.2 77.5 L353.6 72.9 L353.6 70.4 L354.4 69.6 L359.9 70.1 L360.6 70.1 L361.0 70.2 L361.5 70.3 L364.0 68.8 L365.5 67.6 L369.1 68.7 L370.7 68.6 L373.4 67.8 L374.2 65.9 L375.1 64.5 L377.5 63.0 L379.7 61.6 L380.7 61.3 L381.7 61.0 L384.0 58.0 L383.9 55.6 L384.0 52.7 L384.0 50.6 L385.7 46.0 L388.9 47.1 L389.8 48.8 L390.8 49.4 L391.7 49.4 L392.5 50.6 L392.9 52.0 L394.2 55.8 L396.8 57.3 L398.6 60.8 L402.5 63.0 L403.6 63.3 L404.0 63.9 L405.8 66.6 L404.9 72.0 L406.1 74.8 L407.6 76.1 L408.9 75.8 L410.5 76.8 L410.9 76.7 L412.2 77.3 L414.6 76.8 L416.3 75.8 L417.9 75.8 L420.1 80.1 L418.8 82.1 L418.5 82.1 L418.6 83.3 L418.8 83.1 L419.5 83.3 L419.8 84.1 L420.5 84.0 L421.1 85.3 L422.4 85.1 L425.1 84.1 L427.3 81.9 L429.7 84.2 L431.5 84.8 L432.3 84.0 L434.3 84.0 L436.7 86.6 L439.2 86.3 L443.9 86.9 L445.7 86.0 L446.6 86.8 L446.9 87.8 L447.4 88.4 L447.7 90.2 L447.7 90.5 L449.1 89.5 L451.0 89.2 L452.2 89.1 L453.1 89.0 L454.9 89.8 L456.1 91.0 L458.4 91.2 L458.9 92.9 L457.5 94.0 L454.2 95.8 L453.1 97.6 L452.9 98.2 L453.1 99.3 L453.1 99.8 L452.6 100.8 L452.4 101.3 L450.6 101.6 L450.5 102.4 L449.3 101.2 L449.6 104.1 L448.7 107.7 L447.5 109.0 L449.4 110.4 L451.2 110.7 L451.8 112.4 L453.1 112.8 L453.9 113.4 L454.6 113.3 L455.9 113.9 L458.1 115.0 L458.3 114.5 L459.7 114.6 L461.6 116.0 L461.3 117.3 L460.2 118.5 L458.5 119.9 L458.0 121.4 L458.5 122.1 L456.7 123.5 L455.8 123.5 L454.7 124.0 L454.2 125.9 L454.7 126.9 L454.5 127.6 L454.3 128.6 L453.7 129.8 L453.1 130.1 L452.7 130.2 L452.0 130.1 L450.8 131.3 L449.8 132.9 L448.5 133.1 L448.7 134.9 L448.0 136.2 L449.0 137.3 L449.0 139.4 L449.7 140.4 L452.9 141.3 L453.1 141.3 L453.1 141.7 L452.2 143.4 L451.6 147.1 L451.9 147.8 L451.0 150.0 L450.2 150.5 L450.4 151.5 L449.3 152.8 L448.8 153.9 L446.6 156.2 L444.6 158.0 L445.1 160.2 L444.7 161.3 L445.0 162.3 L444.1 163.5 L444.2 164.8 L443.6 166.4 L442.8 167.5 L442.2 169.0 L442.2 170.3 L442.4 171.4 L442.8 173.8 L442.3 175.9 L443.1 177.9 L445.1 178.1 L446.7 178.5 L447.5 180.5 L449.0 181.7 L450.9 181.8 L452.4 182.2 L453.1 182.6 L455.5 182.3 L457.3 182.9 L459.5 185.5 L461.7 184.5 L461.0 183.5 L463.2 183.8 L465.1 184.9 L466.4 185.3 L466.9 185.8 L469.3 185.4 L470.4 184.4 L471.6 184.0 L472.7 184.6 L473.2 185.0 L474.5 184.4 L476.1 184.2 L477.5 185.6 L478.3 188.7 L478.8 190.0 L479.2 190.3 L480.5 191.6 L480.4 192.8 L478.2 194.6 L478.2 196.4 L477.8 196.8 L477.1 196.7 L476.2 197.6 L474.7 200.5 L474.1 200.5 L472.6 201.5 L470.3 200.7 L469.5 202.0 L469.2 204.4 L469.1 206.3 L468.6 206.7 L470.6 207.0 L469.6 208.9 L468.6 210.2 L466.9 213.4 L465.4 214.1 L465.8 214.9 L465.3 215.8 L464.8 216.4 L464.7 218.3 L465.5 218.9 L465.5 219.6 L466.9 219.7 L466.7 221.6 L467.4 222.6 L467.9 225.5 L469.4 224.4 L468.7 227.7 L467.4 228.6 L467.7 229.7 L466.1 229.2 L465.0 229.8 L464.1 228.5 L463.6 228.4 L462.4 229.4 L462.4 229.8 L462.9 230.9 L462.7 232.2 L461.7 233.3 L461.1 234.6 L460.4 236.1 L458.7 237.0 L458.6 238.4 L458.0 239.7 L456.6 240.9 L456.5 241.2 L455.3 242.4 L454.3 244.9 L453.7 247.5 L453.1 247.7 L452.3 248.8 L450.5 252.2 L451.9 254.0 L452.0 256.0 L452.6 257.4 L452.8 257.6 L453.1 258.0 L457.3 261.3 L458.5 263.3 L463.7 266.1 L464.5 266.7 L466.6 270.0 L466.1 270.5 L465.7 270.2 L465.3 270.9 L464.6 269.8 L463.7 270.2 L464.5 271.2 L463.9 272.3 L464.3 272.6 L463.9 273.0 L464.6 273.8 L466.0 275.4 L467.2 276.1 L466.7 276.7 L467.8 277.5 L467.8 279.3 L468.8 280.3 L469.4 278.7 L470.8 279.7 L470.8 281.4 L474.5 281.3 L476.0 283.3 L476.6 284.3 L476.2 284.2 L475.8 284.3 L475.4 284.2 L474.6 285.2 L475.9 286.5 L477.8 286.7 L477.9 285.2 L478.6 285.4 L479.1 286.3 L480.3 286.4 L481.5 285.2 L482.4 285.5 L483.1 285.8 L483.8 285.3 L484.7 285.2 L485.6 283.6 L487.8 284.4 L488.7 283.5 L489.8 283.5 L491.1 282.5 L493.3 284.2 L493.6 283.4 L494.5 284.1 L494.5 284.9 L495.6 285.0 L496.7 283.9 L497.1 284.4 L497.8 284.1 L498.3 284.9 L497.9 286.0 L500.1 287.9 L502.3 287.8 L504.3 287.7 L505.9 287.3 L506.6 287.4 L511.6 287.5 L513.3 285.7 L514.5 285.9 L515.8 286.6 L517.5 287.0 L518.4 288.8 L519.7 288.0 L519.2 289.0 L518.0 289.8 L516.7 291.7 L517.5 292.1 L519.5 296.2 L519.6 297.5 L520.5 296.0 L521.4 296.7 L521.8 296.6 L522.6 298.2 L522.7 298.8 L523.5 299.0 L524.1 299.2 L524.6 299.2 L523.8 299.8 L524.1 301.1 L523.8 302.0 L525.2 301.3 L526.0 303.6 L526.2 304.6 L524.9 305.8 L525.1 306.2 L524.4 306.0 L524.8 305.0 L524.0 303.9 L521.4 305.0 L521.7 308.0 L521.5 309.3 L519.1 309.2 L516.1 310.0 L515.3 312.5 L514.5 312.0 L511.6 309.3 L509.4 306.7 L506.2 305.2 L502.9 306.9 L498.9 308.0 L494.9 309.8 L490.9 311.0 L487.8 310.6 L483.8 310.6 L483.5 310.6 L483.0 310.8 L478.0 311.7 L474.1 311.3 L470.9 309.3 L466.2 305.2 L465.2 305.1 L464.7 303.3 L464.2 302.9 L462.0 301.3 L457.6 299.3 L455.9 296.8 L454.4 294.9 L453.1 294.4 L452.7 294.3 L450.1 292.1 L449.6 292.1 L448.9 292.5 L448.2 292.1 L448.0 291.8 L447.1 292.1 L446.8 293.4 L445.4 294.2 L445.3 294.8 L444.2 295.2 L442.3 296.2 L442.6 298.2 L441.3 299.3 L438.0 298.2 L436.8 296.1 L436.8 294.8 L436.4 294.5 L434.8 295.1 L428.8 293.3 L427.6 293.0 L427.4 295.1 L426.9 295.4 L424.9 294.5 L422.4 294.7 L421.7 294.8 L420.3 294.3 L418.3 292.1 L416.8 290.5 L413.8 291.2 L413.9 290.0 L413.1 289.3 L410.5 289.3 L403.9 285.8 L403.5 285.5 L402.1 284.3 L401.4 284.4 L395.2 284.4 L393.6 282.9 L391.7 286.1 L390.4 287.5 L388.2 289.6 L388.9 290.4 L388.3 292.1 L385.5 296.7 L382.1 303.2 L377.4 309.7 L377.7 312.1 L376.0 313.4 L375.9 317.6 L376.4 318.8 L376.5 319.4 L377.5 320.9 L377.2 321.2 L377.1 322.7 L373.7 322.9 L373.5 323.7 L372.4 324.1 L372.0 326.4 L372.3 329.9 L370.9 330.9 L368.4 329.8 L368.0 328.5 L366.8 329.4 L365.8 328.6 L364.8 328.9 L362.9 328.8 L363.4 329.6 L362.4 331.1 L361.0 331.1 L360.7 331.1 L359.6 332.5 L358.4 334.1 L357.6 333.8 L356.9 333.9 L356.0 333.6 L355.3 332.3 L353.3 331.1 L351.9 331.6 L351.6 331.5 L351.2 334.0 L351.5 336.5 L349.6 338.7 L348.5 340.1 L347.6 340.7 L344.9 342.5 L341.5 340.9 L339.7 341.6 L338.3 341.5 L336.4 342.2 L334.7 343.1 L334.4 343.3 L331.7 344.3 L330.4 345.2 L329.0 345.8 L327.2 348.2 L325.7 348.4 L324.4 349.0 L323.9 350.6 L322.1 354.1 L321.3 354.2 L319.8 356.9 L319.7 358.1 L317.7 358.4 L316.2 359.2 L314.4 359.1 L310.5 360.5 L309.7 359.8 L308.7 359.3 L308.0 358.3 L306.7 357.9 L305.5 357.8 L304.0 358.3 L301.7 358.9 L301.0 361.5 L300.1 363.9 L299.7 365.0 L299.0 366.1 L297.5 367.4 L297.0 368.5 L296.9 368.9 L295.0 370.8 L292.4 371.6 L291.3 374.0 L289.2 373.3 L287.6 372.5 L285.4 372.0 L285.3 371.8 L284.9 370.0 L284.0 368.5 L283.5 368.2 L283.5 366.2 L282.2 366.0 L278.9 366.0 L278.7 364.5 L277.4 364.2 L275.2 363.4 L274.8 362.5 L272.9 361.2 L271.7 361.2 L271.3 360.8 L273.5 356.1 L274.4 354.0 L274.0 349.6 L273.6 347.0 L271.9 345.1 L271.1 343.1 L271.1 341.6 L271.8 341.4 L272.9 339.9 L274.7 339.3 L274.7 338.5 L275.1 337.4 L275.0 336.3 L274.4 335.5 L273.6 333.8 L274.7 332.9 L274.7 332.9 L274.1 332.4 L273.0 331.7 L272.1 328.7 L269.0 329.2 L268.8 328.8 L267.4 328.6 L266.8 328.7 L265.8 328.0 L264.1 328.0 L263.1 327.3 L262.4 325.2 L261.9 323.2 L260.6 320.5 L260.0 320.3 L259.0 320.0 L258.9 319.1 L258.0 318.1 L258.4 317.6 L259.3 315.0 L259.6 315.1 L260.2 315.4 L260.6 314.8 L261.1 315.0 L260.9 315.7 L261.1 317.6 L261.7 318.3 L262.9 318.9 L263.4 318.9 L265.9 320.2 L265.7 319.4 L266.4 318.3 L268.0 317.6 L269.0 317.2 L269.0 317.3 L271.0 316.9 L272.3 317.3 L272.7 316.2 L271.1 313.6 L270.9 312.9 L269.2 309.3 L272.1 306.7 L272.7 307.0 L272.1 305.2 L271.6 303.3 L269.0 303.8 L267.3 300.5 L266.7 299.5 L266.7 295.9 L265.4 294.6 L264.4 293.8 L264.6 292.1 L264.8 290.3 L264.9 288.3 L264.4 285.9 L263.7 284.4 L265.8 283.6 L266.6 282.3 L269.0 281.8 L270.1 281.3 L270.7 281.4 L271.7 280.7 L273.4 279.8 L274.1 279.8 L274.4 279.9 L275.5 278.3 L275.9 278.3 L275.9 277.6 L276.8 276.9 L276.5 275.4 L275.4 273.5 L276.4 271.0 L276.4 268.5 L276.0 266.7 L276.0 264.8 L275.9 262.0 L276.8 260.4 L276.4 259.5 L277.6 256.8 L276.3 255.5 L276.0 252.7 L276.3 249.1 L275.9 247.9 L275.5 245.0 L275.4 244.8 L274.5 243.8 Z" fill="#d9ebe7" stroke="#17756d" stroke-width="2.5" stroke-linejoin="round"/>
  <text x="24" y="42" font-size="24" font-weight="700" fill="#7c9b96">群馬県</text>
  <circle cx="410.2" cy="274.4" r="26" fill="#ee7b2e" opacity="0.18"/>
  <path d="M410.2 244.4 C397.2 244.4 394.2 258.4 410.2 274.4 C426.2 258.4 423.2 244.4 410.2 244.4 Z" fill="#ee7b2e"/>
  <circle cx="410.2" cy="253.4" r="6.5" fill="#ffffff"/>
  <text x="432.2" y="284.4" font-size="32" font-weight="700" fill="#17756d" stroke="#ffffff" stroke-width="7" paint-order="stroke" text-anchor="start">伊勢崎市</text>
</svg>
